<svg xmlns="http://www.w3.org/2000/svg" viewBox="0 0 128 128" fill="none">
  <rect width="128" height="128" rx="34" fill="#FFFFFF"/>
  <rect x="0.5" y="0.5" width="127" height="127" rx="33.5" stroke="rgba(26,43,76,0.08)"/>
  <path d="M45.5 89.5C39.8288 81.489 36.5 71.6951 36.5 61.125C36.5 34.2731 58.2731 12.5 85.125 12.5H88.5V28.5H85.125C67.1097 28.5 52.5 43.1097 52.5 61.125C52.5 69.1138 55.373 76.4316 60.1411 82.1006L45.5 89.5Z" fill="#1A2B4C"/>
  <path d="M61.4 82L79.2 74.8L72 92.6L66.5 87.2L54.4 99.3C52.525 101.175 49.4853 101.175 47.6103 99.3C45.7352 97.4249 45.7352 94.3852 47.6103 92.5102L59.7 80.4L54.3 74.9L72.1 67.7L64.9 85.5L61.4 82Z" fill="#FF6D00"/>
  <circle cx="86.5" cy="34.5" r="8" fill="#2F6FED"/>
</svg>
