<svg xmlns="http://www.w3.org/2000/svg" viewBox="0 0 620 160" fill="none">
  <rect x="14" y="16" width="130" height="130" rx="38" fill="#FFFFFF"/>
  <rect x="14.5" y="16.5" width="129" height="129" rx="37.5" stroke="rgba(26,43,76,0.08)"/>
  <path d="M48 101C41.676 91.6554 38 80.3863 38 68.25C38 35.5271 64.5271 9 97.25 9H101.5V29H97.25C75.5728 29 58 46.5728 58 68.25C58 77.4569 61.1737 85.9226 66.4855 92.6108L48 101Z" fill="#1A2B4C"/>
  <path d="M67 93.5L89.5 84.5L80.5 107L72.4 99L58.2 113.2C55.856 115.544 52.054 115.544 49.71 113.2C47.3661 110.856 47.3661 107.054 49.71 104.71L63.9 90.52L55.8 82.4L78.3 73.4L69.3 95.9L67 93.5Z" fill="#FF6D00"/>
  <circle cx="100" cy="35" r="9" fill="#2F6FED"/>
  <text x="176" y="56" fill="#1A2B4C" font-family="Montserrat, Poppins, Segoe UI, Arial, sans-serif" font-size="22" font-weight="700" letter-spacing="7">PORTAL NACIONAL</text>
  <text x="176" y="108" fill="#1A2B4C" font-family="Montserrat, Poppins, Segoe UI, Arial, sans-serif" font-size="58" font-weight="800">Jovem</text>
  <text x="378" y="108" fill="#5F6B7A" font-family="Montserrat, Poppins, Segoe UI, Arial, sans-serif" font-size="58" font-weight="500">Aprendiz</text>
  <text x="176" y="144" fill="#FF6D00" font-family="Montserrat, Poppins, Segoe UI, Arial, sans-serif" font-size="28" font-weight="800" letter-spacing="5">VAGAS</text>
</svg>
